<svg width="176" height="34" viewBox="0 0 176 34" fill="none" xmlns="http://www.w3.org/2000/svg">
<path d="M17 0L20.8167 11.7467L33.168 11.7467L23.1756 19.0066L26.9923 30.7533L17 23.4934L7.00765 30.7533L10.8244 19.0066L0.832039 11.7467L13.1833 11.7467L17 0Z" fill="#FFD700"/>
<path d="M51 0L54.8167 11.7467L67.168 11.7467L57.1756 19.0066L60.9923 30.7533L51 23.4934L41.0077 30.7533L44.8244 19.0066L34.832 11.7467L47.1833 11.7467L51 0Z" fill="#FFD700"/>
<path d="M91 0L94.8167 11.7467L107.168 11.7467L97.1756 19.0066L100.992 30.7533L91 23.4934L81.0077 30.7533L84.8244 19.0066L74.832 11.7467L87.1833 11.7467L91 0Z" fill="#FFD700"/>
<path d="M125 0L128.817 11.7467L141.168 11.7467L131.176 19.0066L134.992 30.7533L125 23.4934L115.008 30.7533L118.824 19.0066L108.832 11.7467L121.183 11.7467L125 0Z" fill="#FFD700"/>
<path d="M159 0L162.817 11.7467L175.168 11.7467L165.176 19.0066L168.992 30.7533L159 23.4934L149.008 30.7533L152.824 19.0066L142.832 11.7467L155.183 11.7467L159 0Z" fill="#FFD700"/>
</svg>
